<?xml version="1.0" encoding="UTF-8"?> <svg xmlns="http://www.w3.org/2000/svg" width="57" height="55" viewBox="0 0 57 55" fill="none"> <path d="M46.4104 55H10.5896C7.37268 55 4.33014 53.5377 2.32052 51.0257C0.818376 49.148 0 46.815 0 44.4104V17.7649C0 12.9979 1.91586 8.43085 5.31689 5.09056C8.63878 1.82799 13.1088 0 17.7649 0H38.6114C43.0469 0 47.3263 1.63773 50.6286 4.599L51.0172 4.94749C54.8246 8.36176 57 13.2344 57 18.3485V44.4104C57 46.815 56.1816 49.148 54.6795 51.0257C52.6699 53.5377 49.6273 55 46.4104 55Z" fill="#F5F5F5"></path> <circle cx="13" cy="23" r="5" fill="#0F0F0F"></circle> <circle cx="44" cy="23" r="5" fill="#0F0F0F"></circle> <path d="M28.5 37.5714C30.0317 37.5714 31.3264 37.0175 32.2741 36.4238C32.9268 36.0149 34 36.4744 34 37.2446C34 37.4546 33.9209 37.6563 33.7602 37.7915C33.1588 38.2974 31.4218 39.5 28.5 39.5C25.5782 39.5 23.8412 38.2974 23.2398 37.7915C23.0791 37.6563 23 37.4546 23 37.2446C23 36.4744 24.0732 36.0149 24.7259 36.4238C25.6736 37.0175 26.9683 37.5714 28.5 37.5714Z" fill="#0F0F0F"></path> </svg> 