<?xml version="1.0" encoding="UTF-8"?> <svg xmlns="http://www.w3.org/2000/svg" width="55" height="55" viewBox="0 0 55 55" fill="none"> <path fill-rule="evenodd" clip-rule="evenodd" d="M28.3888 40.0969L17.9593 51.1851C14.3968 54.9726 8.37856 54.9726 4.81606 51.1851C1.54905 47.7118 1.54905 42.2959 4.81607 38.8226L15.5857 27.3729L1.42807 13.3028C0.641165 12.5208 0.641164 11.2477 1.42807 10.4656L10.3765 1.57247C11.1566 0.79726 12.4162 0.797259 13.1962 1.57247L26.9741 15.2652L37.8446 3.70827C41.4071 -0.0791903 47.4253 -0.0791903 50.9878 3.70827C54.2549 7.18159 54.2549 12.5975 50.9878 16.0708L39.7773 27.9893L53.5732 41.6999C54.3601 42.482 54.3601 43.7551 53.5732 44.5371L44.6248 53.4303C43.8447 54.2055 42.5851 54.2055 41.8051 53.4303L28.3888 40.0969Z" fill="#F5F5F5"></path> </svg> 